<svg width="36" height="36" viewBox="0 0 36 36" fill="none" xmlns="http://www.w3.org/2000/svg">
<path d="M31.513 35.4787C14.3963 35.4787 0.479614 21.5453 0.479614 4.42868C0.479614 3.31201 1.24628 2.34535 2.32961 2.09535L9.11295 0.545346C10.2463 0.295346 11.3963 0.878679 11.8629 1.92868L14.9963 9.22868C15.4129 10.212 15.1296 11.362 14.3129 12.0287L10.8796 14.8453C13.1129 19.262 16.7296 22.8787 21.1463 25.112L23.9629 21.6787C24.6296 20.862 25.7796 20.5787 26.7629 20.9953L34.063 24.1287C35.1296 24.5953 35.7129 25.7453 35.4629 26.8787L33.8963 33.662C33.6463 34.762 32.6796 35.512 31.5629 35.512L31.513 35.4787ZM9.64628 2.14535C9.64628 2.14535 9.52961 2.14535 9.47962 2.16201L2.71295 3.72868C2.37961 3.81201 2.14628 4.09535 2.14628 4.44535C2.14628 20.6453 15.3296 33.812 31.513 33.812C31.863 33.812 32.1463 33.5787 32.2296 33.2453L33.7963 26.4787C33.8796 26.1287 33.6963 25.7787 33.3629 25.6287L26.0796 22.512C25.7796 22.3787 25.4296 22.4787 25.2296 22.7287L21.5796 27.1787L20.9963 26.8953C15.7629 24.4287 11.5296 20.1953 9.06295 14.962L8.77961 14.3787L13.2296 10.7453C13.4796 10.5453 13.5629 10.1953 13.4463 9.89535L10.3129 2.57868C10.1963 2.31201 9.92961 2.14535 9.62961 2.14535H9.64628Z" fill="#112F4E"/>
</svg>
